<?xml version="1.0" encoding="utf-8"?>
<!-- Generator: Adobe Illustrator 12.0.0, SVG Export Plug-In . SVG Version: 6.00 Build 51448)  -->
<!DOCTYPE svg PUBLIC "-//W3C//DTD SVG 1.1//EN" "http://www.w3.org/Graphics/SVG/1.1/DTD/svg11.dtd" [
	<!ENTITY ns_svg "http://www.w3.org/2000/svg">
	<!ENTITY ns_xlink "http://www.w3.org/1999/xlink">
]>
<svg  version="1.1" id="Layer_1" xmlns="&ns_svg;" xmlns:xlink="&ns_xlink;" width="1123.992" height="730.832"
	 viewBox="0 0 1123.992 1238.832" overflow="visible" enable-background="new 0 0 1123.992 1238.832" xml:space="preserve">
<path fill-rule="evenodd" clip-rule="evenodd" fill="#63ADD0" d="M614.592,706.536c110.735,0,209.52-50.976,274.319-130.608
	l-49.392-49.392c-51.912,67.32-133.344,110.736-224.928,110.736c-156.744,0-283.896-127.152-283.896-283.968
	c0-156.744,127.152-283.896,283.896-283.896c87.191,0,165.168,39.24,217.224,101.088l49.176-49.176
	C816.264,47.016,720.936,0,614.592,0C419.544,0,261.36,158.184,261.36,353.304S419.544,706.536,614.592,706.536z"/>
<path fill-rule="evenodd" clip-rule="evenodd" fill="#63ADD0" d="M756.504,477.936c73.943,0,133.919-59.976,133.919-133.92
	s-59.976-133.92-133.919-133.92c-73.944,0-133.92,59.976-133.92,133.92S682.56,477.936,756.504,477.936L756.504,477.936z
	 M737.784,248.616c-40.968,7.992-72.72,41.688-77.76,83.592h33.12c4.392-23.76,21.815-42.912,44.64-49.896V248.616z"/>
</svg>
