<?xml version="1.0" encoding="utf-8"?>
<!-- Generator: Adobe Illustrator 12.0.0, SVG Export Plug-In . SVG Version: 6.00 Build 51448)  -->
<!DOCTYPE svg PUBLIC "-//W3C//DTD SVG 1.1//EN" "http://www.w3.org/Graphics/SVG/1.1/DTD/svg11.dtd" [
	<!ENTITY ns_svg "http://www.w3.org/2000/svg">
	<!ENTITY ns_xlink "http://www.w3.org/1999/xlink">
]>
<svg  version="1.1" id="Layer_1" xmlns="&ns_svg;" xmlns:xlink="&ns_xlink;" width="1123.992" height="1238.832"
	 viewBox="0 0 1123.992 1238.832" overflow="visible" enable-background="new 0 0 1123.992 1238.832" xml:space="preserve">
<path fill-rule="evenodd" clip-rule="evenodd" fill="#63ADD0" d="M614.592,706.536c110.735,0,209.52-50.976,274.319-130.608
	l-49.392-49.392c-51.912,67.32-133.344,110.736-224.928,110.736c-156.744,0-283.896-127.152-283.896-283.968
	c0-156.744,127.152-283.896,283.896-283.896c87.191,0,165.168,39.24,217.224,101.088l49.176-49.176
	C816.264,47.016,720.936,0,614.592,0C419.544,0,261.36,158.184,261.36,353.304S419.544,706.536,614.592,706.536z"/>
<path fill-rule="evenodd" clip-rule="evenodd" fill="#63ADD0" d="M756.504,477.936c73.943,0,133.919-59.976,133.919-133.92
	s-59.976-133.92-133.919-133.92c-73.944,0-133.92,59.976-133.92,133.92S682.56,477.936,756.504,477.936L756.504,477.936z
	 M737.784,248.616c-40.968,7.992-72.72,41.688-77.76,83.592h33.12c4.392-23.76,21.815-42.912,44.64-49.896V248.616z"/>
<path fill-rule="evenodd" clip-rule="evenodd" fill="#588FD3" d="M240.624,897.12c24.264,0,48.601,0,72.864,0
	c13.608,0,24.696,11.088,24.696,24.696c0,55.872,0,111.743,0,167.615c0,13.608-11.087,24.696-24.696,24.696
	c-24.264,0-48.6,0-72.864,0c-13.607,0-24.695-11.088-24.695-24.696c0-55.872,0-111.743,0-167.615
	C215.928,908.208,227.016,897.12,240.624,897.12L240.624,897.12z M310.536,927.576c0-1.584-1.224-2.809-2.808-2.809
	c-20.448,0-40.896,0-61.344,0c-1.584,0-2.808,1.225-2.808,2.809c0,52.057,0,104.04,0,156.096c0,1.584,1.224,2.881,2.808,2.881
	c20.448,0,40.896,0,61.344,0c1.584,0,2.808-1.297,2.808-2.881C310.536,1031.616,310.536,979.633,310.536,927.576z"/>
<path fill-rule="evenodd" clip-rule="evenodd" fill="#588FD3" d="M49.608,766.296c24.336,0,60.12,0,84.456,0
	c13.536,0,24.624,11.089,24.624,24.624v79.776h-27.576v-73.944c0-1.584-1.296-2.88-2.88-2.88c-20.448,0-52.344,0-72.792,0
	c-1.584,0-2.88,1.296-2.88,2.88c0,51.984,0,234.864,0,286.92c0,1.584,1.296,2.881,2.88,2.881c20.448,0,52.344,0,72.792,0
	c1.584,0,2.88-1.297,2.88-2.881v-83.951h27.576v89.711c0,13.608-11.088,24.696-24.624,24.696c-24.336,0-60.12,0-84.456,0
	c-13.536,0-24.624-11.088-24.624-24.696c0-55.872,0-242.567,0-298.512C24.984,777.385,36.072,766.296,49.608,766.296z"/>
<path fill-rule="evenodd" clip-rule="evenodd" fill="#588FD3" d="M1012.967,897.12c24.336,0,48.673,0,72.937,0
	c13.536,0,24.696,11.088,24.696,24.696c0,55.872,0,111.743,0,167.615c0,13.608-11.16,24.696-24.696,24.696
	c-24.264,0-48.601,0-72.937,0c-13.535,0-24.623-11.088-24.623-24.696c0-55.872,0-111.743,0-167.615
	C988.344,908.208,999.432,897.12,1012.967,897.12L1012.967,897.12z M1082.952,927.576c0-1.584-1.296-2.809-2.808-2.809
	c-20.448,0-40.896,0-61.345,0c-1.584,0-2.879,1.225-2.879,2.809c0,52.057,0,104.04,0,156.096c0,1.584,1.295,2.881,2.879,2.881
	c20.448,0,40.896,0,61.345,0c1.512,0,2.808-1.297,2.808-2.881C1082.952,1031.616,1082.952,979.633,1082.952,927.576z"/>
<path fill-rule="evenodd" clip-rule="evenodd" fill="#588FD3" d="M415.008,767.016h-24.264c-1.152,0-2.088,0.937-2.088,2.089
	v342.936c0,1.152,0.936,2.088,2.088,2.088h24.264c1.152,0,2.088-0.936,2.088-2.088V769.104
	C417.096,767.952,416.16,767.016,415.008,767.016z"/>
<path fill-rule="evenodd" clip-rule="evenodd" fill="#588FD3" d="M837.576,897.12c24.336,0,48.601,0,72.937,0
	c13.536,0,24.623,11.088,24.623,24.696c0,22.68,0,45.359,0,68.039c0,13.537-11.087,24.697-24.623,24.697h-69.984v69.119
	c0,1.584,1.296,2.881,2.88,2.881c20.448,0,40.896,0,61.345,0c1.512,0,2.808-1.297,2.808-2.881v-35.063h27.575v40.823
	c0,13.608-11.087,24.696-24.623,24.696c-24.336,0-48.601,0-72.937,0c-13.536,0-24.624-11.088-24.624-24.696
	c0-55.872,0-111.743,0-167.615C812.952,908.208,824.04,897.12,837.576,897.12L837.576,897.12z M907.56,927.576
	c0-1.584-1.296-2.809-2.808-2.809c-20.449,0-40.896,0-61.345,0c-1.584,0-2.88,1.225-2.88,2.809c0,18.863,0,37.656,0,56.521
	c0,1.512,1.296,2.808,2.88,2.808c20.448,0,40.896,0,61.345,0c1.512,0,2.808-1.296,2.808-2.808
	C907.56,965.232,907.56,946.439,907.56,927.576z"/>
<path fill-rule="evenodd" clip-rule="evenodd" fill="#588FD3" d="M667.584,767.016H643.32c-1.151,0-2.088,0.937-2.088,2.089v342.936
	c0,1.152,0.937,2.088,2.088,2.088c27.145,0,54.288,0,81.433,0c23.039,0,41.903-18.864,41.903-41.903V922.536
	c0-19.224-8.28-26.28-24.336-26.712c-23.256-0.648-62.928,2.304-72.647,6.769V769.104
	C669.672,767.952,668.736,767.016,667.584,767.016L667.584,767.016z M669.672,1085.472V924.84h56.879
	c5.832,0,10.513,4.753,10.513,10.512c0,43.057,0,86.041,0,129.024c0,11.664-9.504,21.168-21.168,21.168h-44.353
	C670.896,1085.544,670.32,1085.544,669.672,1085.472z"/>
<path fill-rule="evenodd" clip-rule="evenodd" fill="#588FD3" d="M562.176,1107.647c-5.04,3.313-18.792,6.48-25.704,6.48
	c-15.912,0-27.432,0-43.416,0c-13.536,0-24.624-11.088-24.624-24.696c0-22.68,0-57.6,0-80.279c0-13.608,11.088-24.696,24.624-24.696
	h69.984v-56.88c0-1.584-1.296-2.809-2.808-2.809c-20.448,0-40.896,0-61.344,0c-1.584,0-2.88,1.225-2.88,2.809v35.063h-27.576
	v-40.823c0-13.608,11.088-24.696,24.624-24.696c24.336,0,48.6,0,72.936,0c13.536,0,24.624,11.088,24.624,24.696
	c0,63.359,0,126.792,0,190.224c0,1.152-0.936,2.088-2.088,2.088h-24.264c-1.152,0-2.088-0.936-2.088-2.088V1107.647
	L562.176,1107.647z M496.008,1083.672c0,1.584,1.296,2.881,2.88,2.881c20.448,0,40.896,0,61.344,0c1.512,0,2.808-1.297,2.808-2.881
	c0-18.863,0-49.896,0-68.76c0-1.584-1.296-2.808-2.808-2.808c-20.448,0-40.896,0-61.344,0c-1.584,0-2.88,1.224-2.88,2.808
	C496.008,1033.776,496.008,1064.809,496.008,1083.672z"/>
<path fill="#588FD3" d="M1103.04,1230.12h10.152v-14.473h-10.152c-7.271,0-10.871-2.808-10.871-8.495v-14.472
	c0-5.904,3.455-8.784,10.367-8.784h11.088c6.912,0,10.368,2.88,10.368,8.784v8.495h-10.8v-8.64h-10.152v14.399h10.152
	c7.2,0,10.8,2.953,10.8,8.712v14.616c0,5.688-3.6,8.568-10.943,8.568h-9.864c-7.345,0-11.016-2.88-11.016-8.568v-8.783h10.871
	V1230.12z"/>
<path fill="#588FD3" d="M1074.744,1230.12v-8.64h10.872v8.783c0,5.688-3.672,8.568-11.016,8.568h-11.809
	c-7.271,0-10.943-2.88-10.943-8.568v-37.583c0-5.904,3.455-8.784,10.367-8.784h13.032c6.912,0,10.368,2.88,10.368,8.784v14.472
	c0,5.688-3.672,8.495-11.016,8.495h-11.952v14.473H1074.744L1074.744,1230.12z M1074.744,1192.536h-12.096v14.399h12.096V1192.536z"
	/>
<path fill="#588FD3" d="M789.839,1193.832c1.009,0,1.801,0.504,2.521,1.584s1.08,2.016,1.08,3.023v31.824
	c0,5.688-3.672,8.568-11.016,8.568h-25.057v-86.615h25.704c6.912,0,10.368,2.88,10.368,8.711v28.801c0,0.936-0.36,1.872-1.08,2.735
	C791.64,1193.328,790.848,1193.832,789.839,1193.832L789.839,1193.832z M768.24,1198.439v31.681h14.328v-31.681H768.24
	L768.24,1198.439z M768.24,1160.928v28.801h14.328v-28.801H768.24z"/>
<path fill="#588FD3" d="M413.712,1238.832h-10.8v-46.151c0-5.904,3.456-8.784,10.368-8.784h14.184c6.912,0,10.368,2.88,10.368,8.784
	v46.151H426.96v-46.296h-13.248V1238.832z"/>
<path fill="#588FD3" d="M345.816,1175.256v-10.8h10.8v10.8H345.816L345.816,1175.256z M345.816,1238.832v-54.936h10.8v54.936
	H345.816z"/>
<path fill="#588FD3" d="M308.304,1238.832h-25.632c-6.912,0-10.368-2.952-10.368-8.856v-14.472c0-5.688,3.6-8.568,10.943-8.568
	h14.256v-14.399h-14.4v8.64h-10.8v-8.712c0-5.76,3.6-8.567,10.943-8.567h14.112c7.272,0,10.944,2.808,10.944,8.567V1238.832
	L308.304,1238.832z M283.104,1230.12h14.4v-14.473h-14.4V1230.12z"/>
<path fill="#588FD3" d="M239.112,1238.832v-46.151c0-5.904,3.456-8.784,10.368-8.784h8.352c6.913,0,10.368,2.88,10.368,8.784v8.495
	h-10.872v-8.64h-7.344v46.296H239.112z"/>
<path fill="#588FD3" d="M165.24,1151.063v32.833h11.88c7.272,0,10.872,2.951,10.872,8.64v37.439c0,5.904-3.456,8.856-10.368,8.856
	h-23.256v-87.769H165.24L165.24,1151.063z M165.24,1230.12h11.88v-37.584h-11.88V1230.12z"/>
<path fill="#588FD3" d="M147.816,1238.832h-22.32c-6.912,0-10.368-2.952-10.368-8.856v-14.472c0-5.688,3.672-8.568,11.016-8.568
	h10.8v-14.399H126v8.64h-10.872v-8.712c0-5.76,3.672-8.567,11.016-8.567H136.8c7.344,0,11.016,2.808,11.016,8.567V1238.832
	L147.816,1238.832z M126,1230.12h10.944v-14.473H126V1230.12z"/>
<rect x="84.816" y="1151.063" fill="#588FD3" width="10.872" height="87.769"/>
<path fill="#588FD3" d="M45.144,1192.681c0-5.904,3.456-8.784,10.296-8.784h12.672c6.912,0,10.368,2.88,10.368,8.784v37.583
	c0,5.688-3.672,8.568-10.944,8.568H56.088c-7.344,0-10.944-2.88-10.944-8.568V1192.681L45.144,1192.681z M67.68,1192.536H55.944
	v37.584H67.68V1192.536z"/>
<path fill="#588FD3" d="M25.2,1212.336H36v17.928c0,5.688-3.672,8.568-10.944,8.568H10.944c-7.344,0-10.944-2.88-10.944-8.568
	v-70.487c0-2.88,0.864-5.04,2.592-6.552c1.728-1.44,4.32-2.161,7.704-2.161h15.336c6.912,0,10.368,2.952,10.368,8.784v18.36H25.2
	v-18.432H10.8v70.344h14.4V1212.336z"/>
<path fill="#588FD3" d="M612.936,1238.832h-10.8v-46.296h-9.288v46.296h-10.872v-87.769h10.872v32.833h9.288
	c7.272,0,10.8,2.88,10.8,8.64V1238.832z"/>
<rect x="100.224" y="1151.063" fill="#588FD3" width="10.8" height="87.769"/>
<path fill="#588FD3" d="M195.84,1192.681c0-5.904,3.456-8.784,10.368-8.784h12.672c6.912,0,10.368,2.88,10.368,8.784v37.583
	c0,5.688-3.672,8.568-11.016,8.568h-11.376c-7.344,0-11.016-2.88-11.016-8.568V1192.681L195.84,1192.681z M218.376,1192.536h-11.664
	v37.584h11.664V1192.536z"/>
<path fill="#588FD3" d="M364.032,1192.681c0-5.904,3.456-8.784,10.296-8.784H387c6.912,0,10.368,2.88,10.368,8.784v37.583
	c0,5.688-3.672,8.568-10.944,8.568h-11.448c-7.344,0-10.944-2.88-10.944-8.568V1192.681L364.032,1192.681z M386.568,1192.536
	h-11.736v37.584h11.736V1192.536z"/>
<path fill="#588FD3" d="M537.264,1175.256v-10.8h10.872v10.8H537.264L537.264,1175.256z M537.264,1238.832v-54.936h10.872v54.936
	H537.264z"/>
<path fill="#588FD3" d="M328.392,1169.928h-10.8v13.969h-5.184v8.64h5.184v37.439c0,5.904,3.456,8.856,10.368,8.856h7.488v-8.712
	h-7.056v-37.584h6.408v-8.64h-6.408V1169.928z"/>
<path fill="#588FD3" d="M574.2,1192.536h-6.408v37.584h7.056v8.712h-7.56c-6.84,0-10.296-2.952-10.296-8.856v-37.439h-5.184v-8.64
	h5.184v-13.969h10.8v13.969h6.408V1192.536z"/>
<polygon fill="#588FD3" points="520.272,1238.832 528.12,1183.896 517.248,1183.896 513.288,1212.12 505.872,1183.896 
	499.104,1183.896 491.76,1212.12 487.728,1183.896 476.928,1183.896 484.776,1238.832 492.768,1238.832 502.488,1207.296 
	512.208,1238.832 520.2,1238.832 "/>
<path fill="#588FD3" d="M621.864,1192.681c0-5.904,3.456-8.784,10.296-8.784h12.672c6.912,0,10.368,2.88,10.368,8.784v37.583
	c0,5.688-3.6,8.568-10.943,8.568h-11.448c-7.344,0-10.944-2.88-10.944-8.568V1192.681L621.864,1192.681z M644.4,1192.536h-11.735
	v37.584H644.4V1192.536z"/>
<path fill="#588FD3" d="M670.464,1183.896h-10.8v46.079c0,5.904,3.455,8.856,10.367,8.856h14.184c6.912,0,10.369-2.952,10.369-8.856
	v-46.079h-10.873v46.224h-13.247V1183.896z"/>
<path fill="#588FD3" d="M721.656,1192.536h-6.407v37.584h7.055v8.712h-7.487c-6.912,0-10.368-2.952-10.368-8.856v-37.439h-5.184
	v-8.64h5.184v-13.969h10.801v13.969h6.407V1192.536z"/>
<path fill="#588FD3" d="M800.424,1192.681c0-5.904,3.456-8.784,10.367-8.784h12.673c6.911,0,10.367,2.88,10.367,8.784v37.583
	c0,5.688-3.672,8.568-11.016,8.568h-11.448c-7.271,0-10.943-2.88-10.943-8.568V1192.681L800.424,1192.681z M822.959,1192.536
	h-11.735v37.584h11.735V1192.536z"/>
<path fill="#588FD3" d="M849.6,1183.896h-10.872v46.079c0,5.904,3.456,8.856,10.368,8.856h14.256c6.84,0,10.296-2.952,10.296-8.856
	v-46.079h-10.8v46.224H849.6V1183.896z"/>
<path fill="#588FD3" d="M889.272,1238.832h-10.8v-46.151c0-5.904,3.455-8.784,10.367-8.784h14.185c6.912,0,10.368,2.88,10.368,8.784
	v46.151H902.52v-46.296h-13.248V1238.832z"/>
<path fill="#588FD3" d="M941.256,1151.063v32.833h-11.953c-7.199,0-10.799,2.951-10.799,8.64v37.439
	c0,5.904,3.455,8.856,10.367,8.856h23.185v-87.769H941.256L941.256,1151.063z M941.256,1230.12h-11.953v-37.584h11.953V1230.12z"/>
<path fill="#588FD3" d="M992.664,1238.832h-25.632c-6.912,0-10.368-2.952-10.368-8.856v-14.472c0-5.688,3.673-8.568,10.944-8.568
	h14.256v-14.399h-14.399v8.64h-10.801v-8.712c0-5.76,3.673-8.567,10.944-8.567h14.111c7.345,0,10.944,2.808,10.944,8.567V1238.832
	L992.664,1238.832z M967.464,1230.12h14.399v-14.473h-14.399V1230.12z"/>
<path fill="#588FD3" d="M998.423,1238.832v-46.151c0-5.904,3.457-8.784,10.296-8.784h8.353c6.912,0,10.368,2.88,10.368,8.784v8.495
	h-10.8v-8.64h-7.416v46.296H998.423z"/>
<path fill="#588FD3" d="M1034.135,1175.256v-10.8h10.801v10.8H1034.135L1034.135,1175.256z M1034.135,1238.832v-54.936h10.801
	v54.936H1034.135z"/>
</svg>
