<?xml version="1.0" encoding="utf-8"?>
<!-- Generator: Adobe Illustrator 16.2.1, SVG Export Plug-In . SVG Version: 6.00 Build 0)  -->
<!DOCTYPE svg PUBLIC "-//W3C//DTD SVG 1.1//EN" "http://www.w3.org/Graphics/SVG/1.1/DTD/svg11.dtd">
<svg version="1.1" id="Layer_1" xmlns="http://www.w3.org/2000/svg" xmlns:xlink="http://www.w3.org/1999/xlink" x="0px" y="0px"
	 width="141.5px" height="141.25px" viewBox="0 0 141.5 141.25" enable-background="new 0 0 141.5 141.25" xml:space="preserve">
<path fill="#727272" d="M33.22,39.772c-2.072-2.073-2.075-5.433,0-7.506l0,0c2.073-2.073,5.434-2.071,7.505,0l67.555,67.556
	c2.073,2.073,2.073,5.433,0,7.506l0,0c-2.073,2.073-5.432,2.073-7.505,0L33.22,39.772z"/>
<path fill="#727272" d="M100.774,32.265c2.072-2.072,5.433-2.072,7.506,0l0,0c2.073,2.073,2.071,5.434,0,7.506l-67.556,67.555
	c-2.072,2.073-5.433,2.073-7.506,0l0,0c-2.073-2.072-2.072-5.433,0-7.505L100.774,32.265z"/>
</svg>
